<svg width="22" height="23" viewBox="0 0 22 23" fill="none" xmlns="http://www.w3.org/2000/svg">
<path d="M21.5451 20.4034L16.2389 15.0753C17.6032 13.5095 18.3507 11.5394 18.3507 9.48843C18.3507 4.69652 14.3125 0.797852 9.34917 0.797852C4.38581 0.797852 0.347656 4.69652 0.347656 9.48843C0.347656 14.2803 4.38581 18.179 9.34917 18.179C11.2125 18.179 12.9881 17.6364 14.5063 16.6064L19.8528 21.9749C20.0762 22.199 20.3768 22.3225 20.6989 22.3225C21.0038 22.3225 21.293 22.2103 21.5126 22.0063C21.9791 21.5729 21.994 20.8542 21.5451 20.4034ZM9.34917 3.06496C13.0179 3.06496 16.0025 5.94645 16.0025 9.48843C16.0025 13.0304 13.0179 15.9119 9.34917 15.9119C5.68047 15.9119 2.69588 13.0304 2.69588 9.48843C2.69588 5.94645 5.68047 3.06496 9.34917 3.06496Z" fill="white"/>
</svg>
